<svg width="76" height="64" viewBox="0 0 76 64" fill="none" xmlns="http://www.w3.org/2000/svg">
<path d="M16 20.0003H38" stroke="#7B4AE2" stroke-linecap="round" stroke-linejoin="round"/>
<path d="M50 20.0003H72" stroke="#7B4AE2" stroke-linecap="round" stroke-linejoin="round"/>
<path d="M44 25.9998C47.3137 25.9998 50 23.3135 50 19.9998C50 16.686 47.3137 13.9998 44 13.9998C40.6863 13.9998 38 16.686 38 19.9998C38 23.3135 40.6863 25.9998 44 25.9998Z" stroke="#7B4AE2" stroke-linecap="round" stroke-linejoin="round"/>
<path d="M22 50.0002C25.3137 50.0002 28 47.3139 28 44.0002C28 40.6865 25.3137 38.0002 22 38.0002C18.6863 38.0002 16 40.6865 16 44.0002C16 47.3139 18.6863 50.0002 22 50.0002Z" stroke="#7B4AE2" stroke-linecap="round" stroke-linejoin="round"/>
<path d="M66 50.0002C69.3137 50.0002 72 47.3139 72 44.0002C72 40.6865 69.3137 38.0002 66 38.0002C62.6863 38.0002 60 40.6865 60 44.0002C60 47.3139 62.6863 50.0002 66 50.0002Z" stroke="#7B4AE2" stroke-linecap="round" stroke-linejoin="round"/>
<path d="M49.95 20.8253C53.9094 21.9369 57.4785 24.1348 60.2532 27.1702C63.028 30.2056 64.8974 33.9572 65.65 38.0003" stroke="#7B4AE2" stroke-linecap="round" stroke-linejoin="round"/>
<path d="M22.3499 38.0003C23.1024 33.9572 24.9718 30.2056 27.7466 27.1702C30.5213 24.1348 34.0904 21.9369 38.0499 20.8253" stroke="#7B4AE2" stroke-linecap="round" stroke-linejoin="round"/>
<g filter="url(#filter0_d_21_5454)">
<circle cx="24" cy="34" r="20" fill="#7B4AE2" fill-opacity="0.2" shape-rendering="crispEdges"/>
</g>
<defs>
<filter id="filter0_d_21_5454" x="0" y="14" width="48" height="48" filterUnits="userSpaceOnUse" color-interpolation-filters="sRGB">
<feFlood flood-opacity="0" result="BackgroundImageFix"/>
<feColorMatrix in="SourceAlpha" type="matrix" values="0 0 0 0 0 0 0 0 0 0 0 0 0 0 0 0 0 0 127 0" result="hardAlpha"/>
<feOffset dy="4"/>
<feGaussianBlur stdDeviation="2"/>
<feComposite in2="hardAlpha" operator="out"/>
<feColorMatrix type="matrix" values="0 0 0 0 0 0 0 0 0 0 0 0 0 0 0 0 0 0 0.25 0"/>
<feBlend mode="normal" in2="BackgroundImageFix" result="effect1_dropShadow_21_5454"/>
<feBlend mode="normal" in="SourceGraphic" in2="effect1_dropShadow_21_5454" result="shape"/>
</filter>
</defs>
</svg>
